<svg id="visual" viewBox="0 0 900 600" width="900" height="600" xmlns="http://www.w3.org/2000/svg" xmlns:xlink="http://www.w3.org/1999/xlink" version="1.1"><path d="M0 232L21.5 228.8C43 225.7 86 219.3 128.8 214.7C171.7 210 214.3 207 257.2 203.7C300 200.3 343 196.7 385.8 191.5C428.7 186.3 471.3 179.7 514.2 188C557 196.3 600 219.7 642.8 228.5C685.7 237.3 728.3 231.7 771.2 222.3C814 213 857 200 878.5 193.5L900 187L900 0L878.5 0C857 0 814 0 771.2 0C728.3 0 685.7 0 642.8 0C600 0 557 0 514.2 0C471.3 0 428.7 0 385.8 0C343 0 300 0 257.2 0C214.3 0 171.7 0 128.8 0C86 0 43 0 21.5 0L0 0Z" fill="#ffe1ee"></path><path d="M0 145L21.5 144.3C43 143.7 86 142.3 128.8 150.7C171.7 159 214.3 177 257.2 180.3C300 183.7 343 172.3 385.8 169.7C428.7 167 471.3 173 514.2 179.3C557 185.7 600 192.3 642.8 194C685.7 195.7 728.3 192.3 771.2 187.2C814 182 857 175 878.5 171.5L900 168L900 0L878.5 0C857 0 814 0 771.2 0C728.3 0 685.7 0 642.8 0C600 0 557 0 514.2 0C471.3 0 428.7 0 385.8 0C343 0 300 0 257.2 0C214.3 0 171.7 0 128.8 0C86 0 43 0 21.5 0L0 0Z" fill="#fcddf0"></path><path d="M0 126L21.5 130.5C43 135 86 144 128.8 148C171.7 152 214.3 151 257.2 148.7C300 146.3 343 142.7 385.8 140.8C428.7 139 471.3 139 514.2 130.7C557 122.3 600 105.7 642.8 109.3C685.7 113 728.3 137 771.2 142.8C814 148.7 857 136.3 878.5 130.2L900 124L900 0L878.5 0C857 0 814 0 771.2 0C728.3 0 685.7 0 642.8 0C600 0 557 0 514.2 0C471.3 0 428.7 0 385.8 0C343 0 300 0 257.2 0C214.3 0 171.7 0 128.8 0C86 0 43 0 21.5 0L0 0Z" fill="#f6d9f4"></path><path d="M0 114L21.5 106C43 98 86 82 128.8 80.8C171.7 79.7 214.3 93.3 257.2 93.5C300 93.7 343 80.3 385.8 78.8C428.7 77.3 471.3 87.7 514.2 95.7C557 103.7 600 109.3 642.8 111.2C685.7 113 728.3 111 771.2 108.7C814 106.3 857 103.7 878.5 102.3L900 101L900 0L878.5 0C857 0 814 0 771.2 0C728.3 0 685.7 0 642.8 0C600 0 557 0 514.2 0C471.3 0 428.7 0 385.8 0C343 0 300 0 257.2 0C214.3 0 171.7 0 128.8 0C86 0 43 0 21.5 0L0 0Z" fill="#eed6f8"></path><path d="M0 32L21.5 33.2C43 34.3 86 36.7 128.8 41.5C171.7 46.3 214.3 53.7 257.2 55.8C300 58 343 55 385.8 53.5C428.7 52 471.3 52 514.2 51.3C557 50.7 600 49.3 642.8 45C685.7 40.7 728.3 33.3 771.2 34.2C814 35 857 44 878.5 48.5L900 53L900 0L878.5 0C857 0 814 0 771.2 0C728.3 0 685.7 0 642.8 0C600 0 557 0 514.2 0C471.3 0 428.7 0 385.8 0C343 0 300 0 257.2 0C214.3 0 171.7 0 128.8 0C86 0 43 0 21.5 0L0 0Z" fill="#e4d4fc"></path></svg>